<svg width="1920" height="1534" viewBox="0 0 1920 1534" fill="none" xmlns="http://www.w3.org/2000/svg">
<mask id="mask0_20520_272087" style="mask-type:alpha" maskUnits="userSpaceOnUse" x="0" y="0" width="1920" height="1534">
<rect width="1920" height="1534" fill="#090817"/>
</mask>
<g mask="url(#mask0_20520_272087)">
<g opacity="0.6" filter="url(#filter0_f_20520_272087)">
<ellipse cx="1468.5" cy="494.5" rx="358.5" ry="354.5" fill="url(#paint0_radial_20520_272087)"/>
</g>
<path d="M1825.78 1159.83C1813.42 1205.25 1778.41 1242.24 1725.51 1270.21C1672.61 1298.17 1601.88 1317.07 1518.26 1326.31C1351.02 1344.81 1132.35 1324.69 901.908 1261.55C671.469 1198.4 472.964 1104.21 338.307 1002.99C270.977 952.377 219.645 900.036 188.255 848.974C156.865 797.915 145.455 748.206 157.818 702.786C170.181 657.367 205.192 620.377 258.091 592.414C310.992 564.45 381.716 545.554 465.34 536.307C632.582 517.812 851.252 537.929 1081.69 601.073C1312.13 664.217 1510.64 758.413 1645.29 859.632C1712.62 910.243 1763.95 962.585 1795.35 1013.65C1826.73 1064.71 1838.15 1114.41 1825.78 1159.83Z" stroke="url(#paint1_linear_20520_272087)" stroke-width="1.60745"/>
<path opacity="0.3" d="M1723.05 1151.36C1712.13 1191.45 1681.18 1224.1 1634.38 1248.78C1587.58 1273.45 1525 1290.11 1450.98 1298.24C1302.95 1314.5 1109.38 1296.62 905.368 1240.71C701.354 1184.81 525.596 1101.49 406.355 1012C346.733 967.249 301.276 920.985 273.472 875.867C245.668 830.75 235.555 786.85 246.468 746.759C257.381 706.667 288.331 674.019 335.131 649.345C381.934 624.671 444.519 608.011 518.534 599.883C666.559 583.625 860.131 601.505 1064.15 657.408C1268.16 713.311 1443.92 796.633 1563.16 886.125C1622.78 930.873 1668.24 977.137 1696.04 1022.26C1723.85 1067.37 1733.96 1111.27 1723.05 1151.36Z" stroke="url(#paint2_linear_20520_272087)" stroke-width="1.60745"/>
<path opacity="0.3" d="M1629.11 1126.72C1619.61 1161.62 1592.63 1190.05 1551.79 1211.53C1510.95 1233 1456.32 1247.5 1391.71 1254.55C1262.48 1268.65 1093.47 1252.98 915.317 1204.16C737.165 1155.35 583.676 1082.65 479.534 1004.6C427.461 965.572 387.76 925.234 363.471 885.909C339.183 846.586 330.346 808.346 339.846 773.442C349.347 738.539 376.331 710.114 417.169 688.636C458.009 667.158 512.634 652.667 577.25 645.615C706.476 631.512 875.489 647.181 1053.64 695.998C1231.79 744.814 1385.28 817.515 1489.42 895.564C1541.5 934.59 1581.2 974.928 1605.49 1014.25C1629.78 1053.58 1638.61 1091.82 1629.11 1126.72Z" stroke="url(#paint3_linear_20520_272087)" stroke-width="1.60745"/>
<g opacity="0.4" filter="url(#filter1_f_20520_272087)">
<path d="M1038 427.5C1038 659.736 847.497 848 612.5 848C377.503 848 187 659.736 187 427.5C187 195.265 377.503 7.00024 612.5 7.00024C847.497 7.00024 1038 195.265 1038 427.5Z" fill="url(#paint4_radial_20520_272087)"/>
</g>
<g filter="url(#filter2_f_20520_272087)">
<path d="M1451.93 1012L1496.78 912.664C1502.99 898.907 1520.58 894.167 1532.98 902.909C1545.38 911.652 1546.26 929.408 1534.78 939.455L1451.93 1012Z" fill="url(#paint5_linear_20520_272087)"/>
</g>
<path d="M1729.02 655.327C1729.42 654.807 1730.17 654.696 1730.69 655.078C1731.22 655.461 1731.33 656.191 1730.94 656.711L1721.77 668.745L1719.86 667.361L1729.02 655.327Z" fill="url(#paint6_linear_20520_272087)"/>
<path d="M1570.81 764.024C1601.5 708.877 1658.25 672.099 1722.18 665.919C1727.94 728.843 1703.57 790.975 1656.16 834.293L1554.59 927.084C1551.96 929.484 1548.28 930.485 1544.81 929.605C1524.04 924.337 1515 917.386 1505.92 900.324C1502.45 893.822 1502.93 886.034 1506.52 879.569L1570.81 764.024Z" fill="url(#paint7_linear_20520_272087)"/>
<mask id="mask1_20520_272087" style="mask-type:alpha" maskUnits="userSpaceOnUse" x="1503" y="665" width="221" height="266">
<path d="M1570.81 764.023C1601.5 708.876 1658.25 672.098 1722.18 665.918C1727.94 728.842 1703.57 790.974 1656.16 834.292L1550.39 930.922C1525.59 925.45 1515.77 918.842 1505.92 900.323C1502.45 893.821 1502.93 886.033 1506.52 879.568L1570.81 764.023Z" fill="#A5FDD7"/>
</mask>
<g mask="url(#mask1_20520_272087)">
<ellipse cx="1657.56" cy="741.707" rx="22.1049" ry="21.5314" fill="url(#paint8_radial_20520_272087)"/>
<mask id="mask2_20520_272087" style="mask-type:alpha" maskUnits="userSpaceOnUse" x="1640" y="725" width="35" height="34">
<ellipse cx="1657.56" cy="741.702" rx="16.7461" ry="16.3117" fill="#0A091A"/>
</mask>
<g mask="url(#mask2_20520_272087)">
<ellipse cx="1657.56" cy="741.702" rx="16.7461" ry="16.3117" fill="black"/>
<rect opacity="0.6" width="8.07307" height="39.6829" transform="matrix(0.709527 0.704678 -0.723083 0.690761 1665.49 725.39)" fill="url(#paint9_linear_20520_272087)"/>
<rect opacity="0.3" width="2.5046" height="39.6829" transform="matrix(-0.709524 -0.704681 -0.72308 0.690764 1662.15 722.06)" fill="url(#paint10_linear_20520_272087)"/>
</g>
<g filter="url(#filter3_f_20520_272087)">
<ellipse rx="106.647" ry="37.0265" transform="matrix(0.717344 -0.696719 0.715332 0.698785 1646 894.151)" fill="#1C8D57"/>
</g>
<g filter="url(#filter4_f_20520_272087)">
<ellipse rx="107.474" ry="36.7371" transform="matrix(0.897764 -0.440478 0.459342 0.888259 1711.31 625.287)" fill="#9DF7CC"/>
</g>
<path d="M1717.94 654.199L1733.56 665.562L1724.55 676.46L1723.59 676.21C1717.82 674.712 1713.04 670.822 1710.48 665.562L1717.94 654.199Z" fill="url(#paint11_linear_20520_272087)"/>
<g filter="url(#filter5_f_20520_272087)">
<path d="M1547.04 831.093L1539 930.92L1524.27 925.701C1503.65 923.681 1504.55 910.914 1517.57 877.418L1539 835.008L1547.04 831.093Z" fill="url(#paint12_linear_20520_272087)"/>
</g>
<g opacity="0.6" filter="url(#filter6_f_20520_272087)">
<path d="M1511.72 914.938C1528.67 935.622 1562.93 938.79 1547.62 950.694C1532.31 962.598 1506.16 955.48 1489.21 934.796C1472.26 914.112 1470.93 887.695 1486.24 875.791C1501.54 863.887 1494.77 894.254 1511.72 914.938Z" fill="#489C78"/>
</g>
</g>
<path d="M1507.52 844.148L1443.22 932.231L1439.87 926.359L1504.17 838.928L1544.36 825.879L1547.71 831.751L1507.52 844.148Z" fill="url(#paint13_linear_20520_272087)"/>
<path d="M1451.92 932.232H1443.21L1507.52 844.149L1547.04 831.752L1522.26 874.815C1490 885.07 1475.02 898.733 1451.92 932.232Z" fill="url(#paint14_linear_20520_272087)"/>
<path d="M1595.74 907.994L1528.87 993.972L1535.62 995.388L1601.85 909.601L1602.54 868.161L1595.79 866.745L1595.74 907.994Z" fill="url(#paint15_linear_20520_272087)"/>
<path d="M1526.25 985.845L1528.87 993.995L1595.73 908.026L1595.99 867.408L1561.3 903.21C1560.96 936.404 1552.09 954.423 1526.25 985.845Z" fill="url(#paint16_linear_20520_272087)"/>
<path d="M1316.79 998.926C1325.1 1004.35 1332.76 1005.3 1338.74 1002.52L1349.28 997.261C1343.29 1000.24 1335.62 999.285 1327.33 993.664C1310.54 982.409 1298.07 956.806 1299.5 936.225C1300.12 925.827 1304.26 918.696 1310.46 915.531L1299.92 920.792C1293.73 923.758 1289.59 930.889 1288.95 941.486C1287.53 962.067 1299.99 987.87 1316.79 998.926Z" fill="url(#paint17_linear_20520_272087)"/>
<path d="M1299.38 936.187C1300.81 915.607 1315.51 908.034 1332.32 919.089C1349.11 930.343 1361.58 955.945 1360.16 976.526C1358.91 997.321 1344.21 1004.89 1327.4 993.838C1310.61 982.584 1298.15 956.782 1299.38 936.187Z" fill="url(#paint18_linear_20520_272087)"/>
<g opacity="0.3">
<mask id="mask3_20520_272087" style="mask-type:alpha" maskUnits="userSpaceOnUse" x="1288" y="915" width="62" height="90">
<path d="M1317.09 999.158C1325.49 1004.56 1333.21 1005.49 1339.22 1002.68L1349.8 997.366C1343.78 1000.38 1336.06 999.446 1327.68 993.844C1310.71 982.625 1298.01 957.008 1299.33 936.372C1299.89 925.947 1304.02 918.784 1310.25 915.587L1299.67 920.901C1293.45 923.898 1289.33 931.061 1288.75 941.686C1287.43 962.322 1300.12 988.139 1317.09 999.158Z" fill="#1C8D57"/>
</mask>
<g mask="url(#mask3_20520_272087)">
<path opacity="0.7" fill-rule="evenodd" clip-rule="evenodd" d="M1298.32 1021.46L1297.37 1019.48L1401.24 968.422L1402.2 970.406L1298.32 1021.46ZM1293.91 1015.67L1294.87 1017.65L1398.73 966.596L1397.77 964.613L1293.91 1015.67ZM1291.5 1013.56L1290.55 1011.58L1394.41 960.522L1395.37 962.506L1291.5 1013.56ZM1287.09 1007.76L1288.04 1009.74L1391.9 958.681L1390.95 956.698L1287.09 1007.76ZM1284.67 1005.65L1283.72 1003.66L1387.58 952.607L1388.53 954.59L1284.67 1005.65ZM1280.25 999.84L1281.2 1001.82L1385.07 950.766L1384.11 948.782L1280.25 999.84ZM1277.83 997.713L1276.87 995.729L1380.75 944.672L1381.7 946.656L1277.83 997.713ZM1273.42 991.924L1274.38 993.907L1378.24 942.85L1377.28 940.866L1273.42 991.924ZM1271.01 989.815L1270.05 987.831L1373.92 936.773L1374.87 938.757L1271.01 989.815ZM1266.58 983.989L1267.54 985.973L1371.41 934.916L1370.45 932.932L1266.58 983.989ZM1264.17 981.9L1263.22 979.916L1367.08 928.859L1368.03 930.842L1264.17 981.9ZM1259.76 976.091L1260.72 978.074L1364.58 927.017L1363.62 925.033L1259.76 976.091ZM1257.35 973.983L1256.39 971.999L1360.25 920.941L1361.21 922.925L1257.35 973.983ZM1252.93 968.177L1253.89 970.161L1357.75 919.103L1356.79 917.119L1252.93 968.177ZM1250.51 966.068L1249.55 964.084L1353.41 913.027L1354.37 915.01L1250.51 966.068ZM1247.57 959.903L1248.52 961.887L1352.4 910.83L1351.44 908.846L1247.57 959.903ZM1243.68 958.152L1242.73 956.169L1346.59 905.111L1347.55 907.094L1243.68 958.152ZM1240.22 954.329L1239.27 952.346L1343.13 901.288L1344.08 903.272L1240.22 954.329Z" fill="#1C8D57"/>
</g>
</g>
<path fill-rule="evenodd" clip-rule="evenodd" d="M1340.1 974.153L1336.6 950.779C1336.54 950.355 1336.3 950.1 1336.04 950.182L1328.01 952.776C1327.81 952.843 1327.64 953.113 1327.58 953.462L1325.47 966.675C1325.4 967.121 1325.54 967.566 1325.78 967.702L1339.42 975.269C1339.81 975.484 1340.2 974.836 1340.1 974.153ZM1333.19 945.407L1321.25 940.242C1320.88 940.082 1320.52 940.681 1320.6 941.331L1323.07 962.241C1323.18 963.184 1323.97 963.08 1324.07 962.109L1325.34 949.593C1325.38 949.189 1325.58 948.868 1325.81 948.814L1333.08 947.142C1333.64 947.013 1333.73 945.64 1333.19 945.407Z" fill="url(#paint19_linear_20520_272087)"/>
<path d="M1751.3 917.982C1742.84 918.578 1736.72 916.135 1733.43 911.622L1727.78 903.399C1731 908.066 1737.11 910.509 1745.65 909.759C1762.87 908.329 1782.9 894.515 1790.46 878.706C1794.35 870.759 1794.26 863.785 1790.96 858.894L1796.61 867.117C1799.98 871.854 1800.08 878.828 1796.11 886.929C1788.55 902.738 1768.46 916.706 1751.3 917.982Z" fill="url(#paint20_linear_20520_272087)"/>
<path d="M1790.61 878.726C1798.17 862.914 1790.39 851.274 1773.24 852.55C1756.01 853.98 1735.99 867.796 1728.43 883.608C1720.64 899.503 1728.42 911.143 1745.57 909.867C1762.8 908.437 1782.9 894.467 1790.61 878.726Z" fill="url(#paint21_linear_20520_272087)"/>
<g opacity="0.3">
<mask id="mask4_20520_272087" style="mask-type:alpha" maskUnits="userSpaceOnUse" x="1727" y="858" width="72" height="61">
<path d="M1751.18 918.037C1742.72 918.632 1736.6 916.189 1733.31 911.676L1727.66 903.452C1730.88 908.119 1736.99 910.563 1745.53 909.814C1762.76 908.386 1782.78 894.575 1790.34 878.767C1794.24 870.822 1794.14 863.848 1790.84 858.956L1796.49 867.179C1799.87 871.917 1799.96 878.891 1796 886.991C1788.43 902.799 1768.34 916.764 1751.18 918.037Z" fill="#1C8D57"/>
</mask>
<g mask="url(#mask4_20520_272087)">
<path opacity="0.7" fill-rule="evenodd" clip-rule="evenodd" d="M1755.88 942.259L1757.41 941.175L1701.62 861.179L1700.1 862.263L1755.88 942.259ZM1761.54 939.749L1760.01 940.834L1704.24 860.842L1705.76 859.758L1761.54 939.749ZM1764.19 939.162L1765.72 938.078L1709.94 858.086L1708.42 859.17L1764.19 939.162ZM1769.86 936.644L1768.33 937.729L1712.56 857.737L1714.09 856.653L1769.86 936.644ZM1772.52 936.059L1774.05 934.975L1718.27 854.984L1716.74 856.068L1772.52 936.059ZM1778.19 933.543L1776.66 934.627L1720.89 854.636L1722.42 853.552L1778.19 933.543ZM1780.86 932.945L1782.39 931.861L1726.61 851.866L1725.08 852.95L1780.86 932.945ZM1786.51 930.437L1784.99 931.521L1729.21 851.53L1730.74 850.446L1786.51 930.437ZM1789.17 929.85L1790.7 928.766L1734.92 848.775L1733.4 849.859L1789.17 929.85ZM1794.86 927.324L1793.33 928.408L1737.55 848.413L1739.07 847.329L1794.86 927.324ZM1797.5 926.75L1799.03 925.666L1743.26 845.675L1741.73 846.759L1797.5 926.75ZM1803.17 924.229L1801.64 925.313L1745.87 845.321L1747.39 844.237L1803.17 924.229ZM1805.83 923.643L1807.35 922.559L1751.58 842.567L1750.05 843.651L1805.83 923.643ZM1811.49 921.126L1809.97 922.21L1754.19 842.219L1755.72 841.135L1811.49 921.126ZM1814.16 920.543L1815.69 919.459L1759.91 839.468L1758.38 840.552L1814.16 920.543ZM1818.88 917.162L1817.36 918.246L1761.57 838.251L1763.1 837.167L1818.88 917.162ZM1822.48 917.436L1824.01 916.352L1768.23 836.361L1766.7 837.445L1822.48 917.436ZM1826.62 916.004L1828.15 914.92L1772.37 834.928L1770.85 836.012L1826.62 916.004Z" fill="#1C8D57"/>
</g>
</g>
<path fill-rule="evenodd" clip-rule="evenodd" d="M1768.08 886.479L1756.97 891.804C1747.21 896.485 1744.3 893.935 1744.01 888.522C1743.81 884.888 1745.27 881.331 1748.77 878.316C1750.35 876.955 1751.91 875.87 1755.82 873.996L1766.89 868.683L1767.12 872.392L1757.39 877.06C1751.53 879.864 1750.53 882.224 1750.27 884C1750.17 884.667 1750.09 886.618 1750.41 887.595C1751.03 889.501 1752.89 889.939 1757.82 887.572L1767.85 882.774L1768.08 886.479ZM1773.55 874.331C1773.53 875.194 1773.5 876.581 1770.64 877.958L1759.3 883.414C1759.3 883.414 1759.28 882.971 1759.3 881.844C1759.3 881.833 1759.3 881.822 1759.3 881.811C1759.32 880.947 1759.35 879.561 1762.22 878.183L1773.56 872.728C1773.56 872.728 1773.58 873.171 1773.55 874.298C1773.55 874.309 1773.55 874.32 1773.55 874.331Z" fill="url(#paint22_linear_20520_272087)"/>
<path d="M1849.39 795.227C1848.09 795.513 1846.8 794.69 1846.52 793.389C1846.23 792.089 1847.05 790.803 1848.35 790.517C1849.66 790.232 1850.94 791.055 1851.23 792.355C1851.51 793.656 1850.69 794.942 1849.39 795.227Z" fill="#1C8D57"/>
<path d="M1869.51 1108.69C1868.21 1108.97 1866.93 1108.15 1866.64 1106.85C1866.36 1105.55 1867.18 1104.26 1868.48 1103.98C1869.78 1103.69 1871.07 1104.52 1871.35 1105.82C1871.64 1107.12 1870.81 1108.4 1869.51 1108.69Z" fill="#1C8D57"/>
<path d="M1622.39 492.227C1621.09 492.513 1619.8 491.69 1619.52 490.389C1619.23 489.088 1620.05 487.802 1621.35 487.517C1622.66 487.231 1623.94 488.054 1624.23 489.355C1624.51 490.656 1623.69 491.941 1622.39 492.227Z" fill="#1C8D57"/>
<g filter="url(#filter7_f_20520_272087)">
<path d="M90.2355 961.618C87.8424 962.143 85.4765 960.629 84.9511 958.236C84.4257 955.843 85.9398 953.477 88.3329 952.952C90.726 952.426 93.0919 953.94 93.6173 956.333C94.1427 958.726 92.6286 961.092 90.2355 961.618Z" fill="#1C8D57"/>
</g>
<path d="M89.8011 959.637C88.5004 959.922 87.2145 959.099 86.9289 957.799C86.6434 956.498 87.4663 955.212 88.767 954.927C90.0677 954.641 91.3536 955.464 91.6391 956.765C91.9247 958.065 91.1017 959.351 89.8011 959.637Z" fill="#1C8D57"/>
<g filter="url(#filter8_f_20520_272087)">
<path d="M1402.24 778.618C1399.84 779.143 1397.48 777.629 1396.95 775.236C1396.43 772.843 1397.94 770.477 1400.33 769.952C1402.73 769.426 1405.09 770.94 1405.62 773.333C1406.14 775.726 1404.63 778.092 1402.24 778.618Z" fill="#1C8D57"/>
</g>
<path d="M1401.8 776.637C1400.5 776.922 1399.21 776.099 1398.93 774.799C1398.64 773.498 1399.47 772.212 1400.77 771.927C1402.07 771.641 1403.35 772.464 1403.64 773.765C1403.92 775.065 1403.1 776.351 1401.8 776.637Z" fill="#1C8D57"/>
<g filter="url(#filter9_f_20520_272087)">
<path d="M576.235 848.618C573.842 849.143 571.476 847.629 570.951 845.236C570.426 842.843 571.94 840.477 574.333 839.952C576.726 839.426 579.092 840.94 579.617 843.333C580.143 845.726 578.629 848.092 576.235 848.618Z" fill="#1C8D57"/>
</g>
<path d="M575.801 846.637C574.5 846.922 573.214 846.1 572.929 844.799C572.643 843.498 573.466 842.212 574.767 841.927C576.068 841.641 577.354 842.464 577.639 843.765C577.925 845.065 577.102 846.351 575.801 846.637Z" fill="#1C8D57"/>
<path d="M492.501 747.859C491.541 748.07 490.592 747.462 490.381 746.502C490.17 745.542 490.778 744.593 491.738 744.382C492.698 744.171 493.647 744.779 493.858 745.739C494.069 746.699 493.462 747.648 492.501 747.859Z" fill="#1C8D57"/>
<path d="M1552.31 1448.23C1551.01 1448.51 1549.72 1447.69 1549.44 1446.39C1549.15 1445.09 1549.98 1443.8 1551.28 1443.52C1552.58 1443.23 1553.86 1444.05 1554.15 1445.35C1554.43 1446.66 1553.61 1447.94 1552.31 1448.23Z" fill="#1C8D57"/>
<g filter="url(#filter10_f_20520_272087)">
<path d="M1574.24 1045.62C1571.84 1046.14 1569.48 1044.63 1568.95 1042.24C1568.43 1039.84 1569.94 1037.48 1572.33 1036.95C1574.73 1036.43 1577.09 1037.94 1577.62 1040.33C1578.14 1042.73 1576.63 1045.09 1574.24 1045.62Z" fill="#1C8D57"/>
</g>
<path d="M1573.8 1043.64C1572.5 1043.92 1571.21 1043.1 1570.93 1041.8C1570.64 1040.5 1571.47 1039.21 1572.77 1038.93C1574.07 1038.64 1575.35 1039.46 1575.64 1040.76C1575.92 1042.07 1575.1 1043.35 1573.8 1043.64Z" fill="#1C8D57"/>
<g filter="url(#filter11_f_20520_272087)">
<path d="M1815.24 686.618C1812.84 687.143 1810.48 685.629 1809.95 683.236C1809.43 680.843 1810.94 678.477 1813.33 677.952C1815.73 677.426 1818.09 678.94 1818.62 681.333C1819.14 683.726 1817.63 686.092 1815.24 686.618Z" fill="#1C8D57"/>
</g>
<path d="M1814.8 684.637C1813.5 684.922 1812.21 684.099 1811.93 682.799C1811.64 681.498 1812.47 680.212 1813.77 679.927C1815.07 679.641 1816.35 680.464 1816.64 681.765C1816.92 683.065 1816.1 684.351 1814.8 684.637Z" fill="#1C8D57"/>
<path d="M1379.39 700.227C1378.09 700.513 1376.8 699.69 1376.52 698.389C1376.23 697.089 1377.05 695.803 1378.35 695.517C1379.65 695.232 1380.94 696.055 1381.23 697.355C1381.51 698.656 1380.69 699.942 1379.39 700.227Z" fill="#1C8D57"/>
<path d="M1314.21 863.787C1313.02 864.048 1311.84 863.295 1311.58 862.104C1311.32 860.913 1312.08 859.735 1313.27 859.474C1314.46 859.212 1315.63 859.966 1315.9 861.157C1316.16 862.348 1315.4 863.525 1314.21 863.787Z" fill="#1C8D57"/>
<path d="M1525.3 684.224C1526.41 689.576 1525.7 693.799 1523.65 696.467L1519.87 701.108C1522.01 698.467 1522.72 694.244 1521.53 688.865C1519.17 678.001 1510.06 666.875 1501.08 663.986C1496.56 662.474 1492.92 663.399 1490.67 666.119L1494.44 661.478C1496.6 658.73 1500.24 657.806 1504.85 659.344C1513.84 662.234 1523.03 673.387 1525.3 684.224Z" fill="url(#paint23_linear_20520_272087)"/>
<path d="M1501.11 663.874C1492.13 660.985 1486.77 667.413 1489.05 678.25C1491.41 689.114 1500.51 700.24 1509.49 703.129C1518.54 706.152 1523.9 699.724 1521.62 688.887C1519.26 678.023 1510.07 666.87 1501.11 663.874Z" fill="url(#paint24_linear_20520_272087)"/>
<g opacity="0.3">
<mask id="mask5_20520_272087" style="mask-type:alpha" maskUnits="userSpaceOnUse" x="1490" y="658" width="36" height="44">
<path d="M1525.34 684.295C1526.44 689.647 1525.73 693.869 1523.68 696.537L1519.9 701.178C1522.05 698.537 1522.75 694.315 1521.56 688.936C1519.21 678.072 1510.11 666.946 1501.13 664.056C1496.61 662.544 1492.97 663.469 1490.72 666.189L1494.5 661.548C1496.66 658.801 1500.3 657.876 1504.91 659.415C1513.89 662.305 1523.07 673.458 1525.34 684.295Z" fill="#1C8D57"/>
</mask>
<g mask="url(#mask5_20520_272087)">
<path opacity="0.7" fill-rule="evenodd" clip-rule="evenodd" d="M1537.44 678.306L1536.73 677.461L1500.28 723.065L1500.99 723.91L1537.44 678.306ZM1535.6 674.99L1536.31 675.835L1499.86 721.433L1499.16 720.588L1535.6 674.99ZM1535.05 673.363L1534.34 672.518L1497.9 718.116L1498.6 718.961L1535.05 673.363ZM1533.21 670.041L1533.92 670.885L1497.47 716.483L1496.76 715.638L1533.21 670.041ZM1532.66 668.41L1531.95 667.565L1495.51 713.163L1496.21 714.008L1532.66 668.41ZM1530.82 665.085L1531.53 665.93L1495.08 711.528L1494.37 710.683L1530.82 665.085ZM1530.26 663.449L1529.55 662.604L1493.11 708.208L1493.81 709.053L1530.26 663.449ZM1528.43 660.136L1529.13 660.981L1492.69 706.579L1491.98 705.734L1528.43 660.136ZM1527.87 658.506L1527.17 657.661L1490.72 703.259L1491.43 704.104L1527.87 658.506ZM1526.03 655.174L1526.74 656.019L1490.29 701.623L1489.58 700.778L1526.03 655.174ZM1525.48 653.55L1524.78 652.706L1488.33 698.303L1489.04 699.148L1525.48 653.55ZM1523.64 650.232L1524.35 651.077L1487.9 696.674L1487.2 695.829L1523.64 650.232ZM1523.09 648.601L1522.38 647.757L1485.94 693.354L1486.64 694.199L1523.09 648.601ZM1521.25 645.28L1521.96 646.125L1485.51 691.723L1484.8 690.878L1521.25 645.28ZM1520.7 643.645L1519.99 642.8L1483.55 688.398L1484.25 689.243L1520.7 643.645ZM1518.5 641.035L1519.21 641.88L1482.76 687.484L1482.05 686.639L1518.5 641.035ZM1518.31 638.697L1517.6 637.853L1481.15 683.45L1481.86 684.295L1518.31 638.697ZM1517.17 636.22L1516.47 635.376L1480.02 680.973L1480.73 681.818L1517.17 636.22Z" fill="#1C8D57"/>
</g>
</g>
<path d="M1503.3 681.162L1501.74 680.108L1501.73 675.14L1499.3 673.501L1499.34 687.074L1501.77 688.713L1501.75 683.745L1503.32 684.803C1503.48 688.918 1504.11 692.344 1504.85 692.847C1505.6 693.349 1506.21 690.763 1506.35 686.853L1511.21 690.137C1511.3 689.585 1511.35 688.982 1511.34 688.33C1511.34 687.738 1511.3 687.13 1511.22 686.516L1506.34 683.22C1506.19 679.029 1505.56 675.515 1504.8 675.005C1504.05 674.496 1503.43 677.161 1503.3 681.162ZM1505.79 684.574C1505.8 689.05 1505.31 692.342 1504.7 691.926C1504.17 691.571 1503.72 688.63 1503.6 684.992L1505.38 686.197C1505.44 685.637 1505.47 685.051 1505.47 684.444C1505.47 683.836 1505.43 683.206 1505.37 682.56L1503.58 681.351C1503.68 677.783 1504.12 675.357 1504.65 675.717C1505.26 676.133 1505.77 680.098 1505.79 684.574Z" fill="url(#paint25_linear_20520_272087)"/>
</g>
<defs>
<filter id="filter0_f_20520_272087" x="965.33" y="-4.66982" width="1006.34" height="998.34" filterUnits="userSpaceOnUse" color-interpolation-filters="sRGB">
<feFlood flood-opacity="0" result="BackgroundImageFix"/>
<feBlend mode="normal" in="SourceGraphic" in2="BackgroundImageFix" result="shape"/>
<feGaussianBlur stdDeviation="72.335" result="effect1_foregroundBlur_20520_272087"/>
</filter>
<filter id="filter1_f_20520_272087" x="78.7539" y="-101.246" width="1067.49" height="1057.49" filterUnits="userSpaceOnUse" color-interpolation-filters="sRGB">
<feFlood flood-opacity="0" result="BackgroundImageFix"/>
<feBlend mode="normal" in="SourceGraphic" in2="BackgroundImageFix" result="shape"/>
<feGaussianBlur stdDeviation="54.1231" result="effect1_foregroundBlur_20520_272087"/>
</filter>
<filter id="filter2_f_20520_272087" x="1442.14" y="888.704" width="110.507" height="133.081" filterUnits="userSpaceOnUse" color-interpolation-filters="sRGB">
<feFlood flood-opacity="0" result="BackgroundImageFix"/>
<feBlend mode="normal" in="SourceGraphic" in2="BackgroundImageFix" result="shape"/>
<feGaussianBlur stdDeviation="4.8941" result="effect1_foregroundBlur_20520_272087"/>
</filter>
<filter id="filter3_f_20520_272087" x="1548.24" y="798.671" width="195.519" height="190.96" filterUnits="userSpaceOnUse" color-interpolation-filters="sRGB">
<feFlood flood-opacity="0" result="BackgroundImageFix"/>
<feBlend mode="normal" in="SourceGraphic" in2="BackgroundImageFix" result="shape"/>
<feGaussianBlur stdDeviation="8.38988" result="effect1_foregroundBlur_20520_272087"/>
</filter>
<filter id="filter4_f_20520_272087" x="1596.56" y="551.004" width="229.493" height="148.564" filterUnits="userSpaceOnUse" color-interpolation-filters="sRGB">
<feFlood flood-opacity="0" result="BackgroundImageFix"/>
<feBlend mode="normal" in="SourceGraphic" in2="BackgroundImageFix" result="shape"/>
<feGaussianBlur stdDeviation="8.38988" result="effect1_foregroundBlur_20520_272087"/>
</filter>
<filter id="filter5_f_20520_272087" x="1502.62" y="825.5" width="50.0146" height="111.014" filterUnits="userSpaceOnUse" color-interpolation-filters="sRGB">
<feFlood flood-opacity="0" result="BackgroundImageFix"/>
<feBlend mode="normal" in="SourceGraphic" in2="BackgroundImageFix" result="shape"/>
<feGaussianBlur stdDeviation="2.79663" result="effect1_foregroundBlur_20520_272087"/>
</filter>
<filter id="filter6_f_20520_272087" x="1458.79" y="856.329" width="109.452" height="116.912" filterUnits="userSpaceOnUse" color-interpolation-filters="sRGB">
<feFlood flood-opacity="0" result="BackgroundImageFix"/>
<feBlend mode="normal" in="SourceGraphic" in2="BackgroundImageFix" result="shape"/>
<feGaussianBlur stdDeviation="8.38988" result="effect1_foregroundBlur_20520_272087"/>
</filter>
<filter id="filter7_f_20520_272087" x="78.4169" y="946.418" width="21.7346" height="21.7341" filterUnits="userSpaceOnUse" color-interpolation-filters="sRGB">
<feFlood flood-opacity="0" result="BackgroundImageFix"/>
<feBlend mode="normal" in="SourceGraphic" in2="BackgroundImageFix" result="shape"/>
<feGaussianBlur stdDeviation="3.21489" result="effect1_foregroundBlur_20520_272087"/>
</filter>
<filter id="filter8_f_20520_272087" x="1390.42" y="763.418" width="21.7346" height="21.7341" filterUnits="userSpaceOnUse" color-interpolation-filters="sRGB">
<feFlood flood-opacity="0" result="BackgroundImageFix"/>
<feBlend mode="normal" in="SourceGraphic" in2="BackgroundImageFix" result="shape"/>
<feGaussianBlur stdDeviation="3.21489" result="effect1_foregroundBlur_20520_272087"/>
</filter>
<filter id="filter9_f_20520_272087" x="564.417" y="833.418" width="21.7346" height="21.7341" filterUnits="userSpaceOnUse" color-interpolation-filters="sRGB">
<feFlood flood-opacity="0" result="BackgroundImageFix"/>
<feBlend mode="normal" in="SourceGraphic" in2="BackgroundImageFix" result="shape"/>
<feGaussianBlur stdDeviation="3.21489" result="effect1_foregroundBlur_20520_272087"/>
</filter>
<filter id="filter10_f_20520_272087" x="1562.42" y="1030.42" width="21.7346" height="21.7341" filterUnits="userSpaceOnUse" color-interpolation-filters="sRGB">
<feFlood flood-opacity="0" result="BackgroundImageFix"/>
<feBlend mode="normal" in="SourceGraphic" in2="BackgroundImageFix" result="shape"/>
<feGaussianBlur stdDeviation="3.21489" result="effect1_foregroundBlur_20520_272087"/>
</filter>
<filter id="filter11_f_20520_272087" x="1803.42" y="671.418" width="21.7346" height="21.7341" filterUnits="userSpaceOnUse" color-interpolation-filters="sRGB">
<feFlood flood-opacity="0" result="BackgroundImageFix"/>
<feBlend mode="normal" in="SourceGraphic" in2="BackgroundImageFix" result="shape"/>
<feGaussianBlur stdDeviation="3.21489" result="effect1_foregroundBlur_20520_272087"/>
</filter>
<radialGradient id="paint0_radial_20520_272087" cx="0" cy="0" r="1" gradientUnits="userSpaceOnUse" gradientTransform="translate(1468.5 494.5) rotate(90) scale(354.5 358.5)">
<stop stop-color="#1C8D57"/>
<stop offset="0.977604" stop-color="#1C8D57" stop-opacity="0"/>
</radialGradient>
<linearGradient id="paint1_linear_20520_272087" x1="1081.9" y1="600.298" x2="900.581" y2="1262.02" gradientUnits="userSpaceOnUse">
<stop offset="0.0509284" stop-color="#73DBA9" stop-opacity="0"/>
<stop offset="0.749872" stop-color="#73DBA9"/>
</linearGradient>
<linearGradient id="paint2_linear_20520_272087" x1="1064.36" y1="656.634" x2="904.172" y2="1241.22" gradientUnits="userSpaceOnUse">
<stop offset="0.111292" stop-color="#73DBA9" stop-opacity="0.05"/>
<stop offset="0.749872" stop-color="#73DBA9"/>
</linearGradient>
<linearGradient id="paint3_linear_20520_272087" x1="1053.85" y1="695.223" x2="914.247" y2="1204.7" gradientUnits="userSpaceOnUse">
<stop offset="0.111292" stop-color="#73DBA9" stop-opacity="0.05"/>
<stop offset="0.749872" stop-color="#73DBA9"/>
</linearGradient>
<radialGradient id="paint4_radial_20520_272087" cx="0" cy="0" r="1" gradientUnits="userSpaceOnUse" gradientTransform="translate(612.5 427.5) rotate(90) scale(420.5 425.5)">
<stop stop-color="#1C8D57"/>
<stop offset="0.977604" stop-color="#1C8D57" stop-opacity="0"/>
</radialGradient>
<linearGradient id="paint5_linear_20520_272087" x1="1452.61" y1="1024.53" x2="1524.86" y2="898.266" gradientUnits="userSpaceOnUse">
<stop stop-color="#65D6A2"/>
<stop offset="1" stop-color="#1B8553" stop-opacity="0"/>
</linearGradient>
<linearGradient id="paint6_linear_20520_272087" x1="1719.19" y1="656.232" x2="1728.32" y2="665.606" gradientUnits="userSpaceOnUse">
<stop offset="0.354243" stop-color="#4B9978"/>
<stop offset="0.863287"/>
</linearGradient>
<linearGradient id="paint7_linear_20520_272087" x1="1595.94" y1="629.483" x2="1772.78" y2="807.688" gradientUnits="userSpaceOnUse">
<stop offset="0.24973" stop-color="#A5FDD7"/>
<stop offset="0.389253" stop-color="#287A57"/>
<stop offset="0.450807" stop-color="#17543A"/>
<stop offset="0.611385" stop-color="#060512"/>
<stop offset="0.792123" stop-color="#081B18"/>
<stop offset="0.899831" stop-color="#0F2B26"/>
</linearGradient>
<radialGradient id="paint8_radial_20520_272087" cx="0" cy="0" r="1" gradientUnits="userSpaceOnUse" gradientTransform="translate(1652.88 737.792) rotate(104.715) scale(29.0075 29.6817)">
<stop stop-color="#010503"/>
<stop offset="0.456228" stop-color="#3AA678"/>
<stop offset="0.93586" stop-color="#081F15"/>
</radialGradient>
<linearGradient id="paint9_linear_20520_272087" x1="4.03653" y1="0" x2="4.03653" y2="39.6829" gradientUnits="userSpaceOnUse">
<stop stop-color="#3C8D69"/>
<stop offset="1" stop-color="#3A8E6A" stop-opacity="0"/>
</linearGradient>
<linearGradient id="paint10_linear_20520_272087" x1="1.2523" y1="0" x2="1.2523" y2="39.6829" gradientUnits="userSpaceOnUse">
<stop stop-color="#3C8D69"/>
<stop offset="1" stop-color="#3A8E6A" stop-opacity="0"/>
</linearGradient>
<linearGradient id="paint11_linear_20520_272087" x1="1707.81" y1="660.148" x2="1715.49" y2="678.564" gradientUnits="userSpaceOnUse">
<stop offset="0.192072" stop-color="#96F2CA"/>
<stop offset="1" stop-color="#206A4B" stop-opacity="0"/>
</linearGradient>
<linearGradient id="paint12_linear_20520_272087" x1="1528.29" y1="825.221" x2="1513.65" y2="916.689" gradientUnits="userSpaceOnUse">
<stop offset="0.156375" stop-color="#010104"/>
<stop offset="0.780781" stop-color="#080817" stop-opacity="0.37"/>
</linearGradient>
<linearGradient id="paint13_linear_20520_272087" x1="1493.45" y1="788.688" x2="1450.46" y2="880.265" gradientUnits="userSpaceOnUse">
<stop stop-color="#52D29B"/>
<stop offset="1" stop-color="#0D211C"/>
</linearGradient>
<linearGradient id="paint14_linear_20520_272087" x1="1495.13" y1="831.752" x2="1429.73" y2="942.888" gradientUnits="userSpaceOnUse">
<stop stop-color="#0D1013"/>
<stop offset="1" stop-color="#216C4C"/>
</linearGradient>
<linearGradient id="paint15_linear_20520_272087" x1="1671.47" y1="858.399" x2="1530.26" y2="1017.97" gradientUnits="userSpaceOnUse">
<stop offset="0.129342" stop-color="#051813"/>
<stop offset="0.385472" stop-color="#051715"/>
<stop offset="0.4854" stop-color="#1B402E"/>
<stop offset="1" stop-color="#1B402E"/>
</linearGradient>
<linearGradient id="paint16_linear_20520_272087" x1="1572.4" y1="867.442" x2="1550.26" y2="989.117" gradientUnits="userSpaceOnUse">
<stop offset="0.00860579" stop-color="#04040D"/>
<stop offset="1" stop-color="#081419"/>
</linearGradient>
<linearGradient id="paint17_linear_20520_272087" x1="1357.64" y1="1020.65" x2="1328.62" y2="882.272" gradientUnits="userSpaceOnUse">
<stop stop-color="#1C8D57" stop-opacity="0"/>
<stop offset="0.632692" stop-color="#7EFFC1"/>
</linearGradient>
<linearGradient id="paint18_linear_20520_272087" x1="1383.49" y1="1016.87" x2="1337.84" y2="882.465" gradientUnits="userSpaceOnUse">
<stop offset="0.00869659" stop-color="#1C8D57" stop-opacity="0"/>
<stop offset="0.794179" stop-color="#1C8D57"/>
</linearGradient>
<linearGradient id="paint19_linear_20520_272087" x1="1329.12" y1="974.594" x2="1331.43" y2="940.922" gradientUnits="userSpaceOnUse">
<stop stop-color="#7EFFC1" stop-opacity="0.62"/>
<stop offset="1" stop-color="#92FFCC"/>
</linearGradient>
<linearGradient id="paint20_linear_20520_272087" x1="1711.75" y1="917.266" x2="1790.35" y2="825.96" gradientUnits="userSpaceOnUse">
<stop stop-color="#1C8D57" stop-opacity="0"/>
<stop offset="0.632692" stop-color="#7EFFC1"/>
</linearGradient>
<linearGradient id="paint21_linear_20520_272087" x1="1694.13" y1="903.876" x2="1783.69" y2="822.328" gradientUnits="userSpaceOnUse">
<stop offset="0.00869659" stop-color="#1C8D57" stop-opacity="0"/>
<stop offset="0.794179" stop-color="#1C8D57"/>
</linearGradient>
<linearGradient id="paint22_linear_20520_272087" x1="1728.45" y1="893.799" x2="1784.81" y2="878.434" gradientUnits="userSpaceOnUse">
<stop stop-color="#1C8D57" stop-opacity="0"/>
<stop offset="0.471599" stop-color="#7EFFC1"/>
</linearGradient>
<linearGradient id="paint23_linear_20520_272087" x1="1528.63" y1="709.666" x2="1468.53" y2="680.976" gradientUnits="userSpaceOnUse">
<stop stop-color="#1C8D57" stop-opacity="0"/>
<stop offset="0.632692" stop-color="#7EFFC1"/>
</linearGradient>
<linearGradient id="paint24_linear_20520_272087" x1="1523.31" y1="722.601" x2="1465.23" y2="686.648" gradientUnits="userSpaceOnUse">
<stop offset="0.00869659" stop-color="#1C8D57" stop-opacity="0"/>
<stop offset="0.794179" stop-color="#1C8D57"/>
</linearGradient>
<linearGradient id="paint25_linear_20520_272087" x1="1499.32" y1="680.204" x2="1516.28" y2="680.446" gradientUnits="userSpaceOnUse">
<stop stop-color="#7EFFC1"/>
<stop offset="1" stop-color="#4DB786" stop-opacity="0.16"/>
</linearGradient>
</defs>
</svg>
